<?xml version="1.0" encoding="utf-8"?>
<!-- Generator: Adobe Illustrator 21.0.0, SVG Export Plug-In . SVG Version: 6.00 Build 0)  -->
<svg version="1.1" id="图层_1" xmlns="http://www.w3.org/2000/svg" xmlns:xlink="http://www.w3.org/1999/xlink" x="0px" y="0px"
	 viewBox="0 0 16 16" style="enable-background:new 0 0 16 16;" xml:space="preserve">
<style type="text/css">
	.st0{fill:#FFFFFF;}
</style>
<rect x="0.9" y="0.8" class="st0" width="14.3" height="14.3"/>
<path d="M14.7,15.7H1.4c-0.5,0-1-0.4-1-1V1.4c0-0.5,0.4-1,1-1h13.3c0.5,0,1,0.4,1,1v13.3C15.7,15.2,15.3,15.7,14.7,15.7z M1.4,1
	C1.2,1,1.1,1.2,1.1,1.4v13.3c0,0.2,0.1,0.3,0.3,0.3h13.3c0.2,0,0.3-0.1,0.3-0.3V1.4c0-0.2-0.1-0.3-0.3-0.3C14.7,1,1.4,1,1.4,1z"/>
<path d="M6.6,11.3c-0.1,0-0.2-0.1-0.3-0.1L3.6,8.4C3.4,8.3,3.4,8,3.6,7.8c0.1-0.1,0.4-0.1,0.6,0l2.5,2.5l5.1-5.1
	c0.1-0.1,0.4-0.1,0.6,0c0.1,0.1,0.1,0.4,0,0.6l-5.4,5.4C6.8,11.3,6.7,11.3,6.6,11.3z"/>
</svg>
